<?xml version="1.0" encoding="utf-8" standalone="no"?>
<!DOCTYPE svg PUBLIC "-//W3C//DTD SVG 1.1//EN"
  "http://www.w3.org/Graphics/SVG/1.1/DTD/svg11.dtd">
<svg xmlns:xlink="http://www.w3.org/1999/xlink" width="240.199219pt" height="275.579062pt" viewBox="0 0 240.199219 275.579062" xmlns="http://www.w3.org/2000/svg" version="1.1">
 <metadata>
  <rdf:RDF xmlns:dc="http://purl.org/dc/elements/1.1/" xmlns:cc="http://creativecommons.org/ns#" xmlns:rdf="http://www.w3.org/1999/02/22-rdf-syntax-ns#">
   <cc:Work>
    <dc:type rdf:resource="http://purl.org/dc/dcmitype/StillImage"/>
    <dc:date>2025-08-11T07:48:54.644767</dc:date>
    <dc:format>image/svg+xml</dc:format>
    <dc:creator>
     <cc:Agent>
      <dc:title>Matplotlib v3.10.3, https://matplotlib.org/</dc:title>
     </cc:Agent>
    </dc:creator>
   </cc:Work>
  </rdf:RDF>
 </metadata>
 <defs>
  <style type="text/css">*{stroke-linejoin: round; stroke-linecap: butt}</style>
 </defs>
 <g id="figure_1">
  <g id="patch_1">
   <path d="M 0 275.579062
L 240.199219 275.579062
L 240.199219 0
L 0 0
z
" style="fill: #ffffff"/>
  </g>
  <g id="axes_1">
   <g id="patch_2">
    <path d="M 40.544688 243.058437
L 236.314687 243.058437
L 236.314687 21.198437
L 40.544688 21.198437
z
" style="fill: #fafafa"/>
   </g>
   <g id="matplotlib.axis_1">
    <g id="xtick_1">
     <g id="line2d_1">
      <path d="M 41.599825 243.058437
L 41.599825 21.198437
" clip-path="url(#p9edc7d8c7c)" style="fill: none; stroke: #e0e0e0; stroke-opacity: 0.3; stroke-width: 0.5; stroke-linecap: square"/>
     </g>
     <g id="line2d_2">
      <defs>
       <path id="m3ade4a3fe3" d="M 0 0
L 0 4
" style="stroke: #333333; stroke-width: 0.8"/>
      </defs>
      <g>
       <use xlink:href="#m3ade4a3fe3" x="41.599825" y="243.058437" style="fill: #333333; stroke: #333333; stroke-width: 0.8"/>
      </g>
     </g>
     <g id="text_1">
      <!-- 1990 -->
      <g style="fill: #333333" transform="translate(30.147325 257.397031) scale(0.09 -0.09)">
       <defs>
        <path id="DejaVuSans-31" d="M 794 531
L 1825 531
L 1825 4091
L 703 3866
L 703 4441
L 1819 4666
L 2450 4666
L 2450 531
L 3481 531
L 3481 0
L 794 0
L 794 531
z
" transform="scale(0.015625)"/>
        <path id="DejaVuSans-39" d="M 703 97
L 703 672
Q 941 559 1184 500
Q 1428 441 1663 441
Q 2288 441 2617 861
Q 2947 1281 2994 2138
Q 2813 1869 2534 1725
Q 2256 1581 1919 1581
Q 1219 1581 811 2004
Q 403 2428 403 3163
Q 403 3881 828 4315
Q 1253 4750 1959 4750
Q 2769 4750 3195 4129
Q 3622 3509 3622 2328
Q 3622 1225 3098 567
Q 2575 -91 1691 -91
Q 1453 -91 1209 -44
Q 966 3 703 97
z
M 1959 2075
Q 2384 2075 2632 2365
Q 2881 2656 2881 3163
Q 2881 3666 2632 3958
Q 2384 4250 1959 4250
Q 1534 4250 1286 3958
Q 1038 3666 1038 3163
Q 1038 2656 1286 2365
Q 1534 2075 1959 2075
z
" transform="scale(0.015625)"/>
        <path id="DejaVuSans-30" d="M 2034 4250
Q 1547 4250 1301 3770
Q 1056 3291 1056 2328
Q 1056 1369 1301 889
Q 1547 409 2034 409
Q 2525 409 2770 889
Q 3016 1369 3016 2328
Q 3016 3291 2770 3770
Q 2525 4250 2034 4250
z
M 2034 4750
Q 2819 4750 3233 4129
Q 3647 3509 3647 2328
Q 3647 1150 3233 529
Q 2819 -91 2034 -91
Q 1250 -91 836 529
Q 422 1150 422 2328
Q 422 3509 836 4129
Q 1250 4750 2034 4750
z
" transform="scale(0.015625)"/>
       </defs>
       <use xlink:href="#DejaVuSans-31"/>
       <use xlink:href="#DejaVuSans-39" transform="translate(63.623047 0)"/>
       <use xlink:href="#DejaVuSans-39" transform="translate(127.246094 0)"/>
       <use xlink:href="#DejaVuSans-30" transform="translate(190.869141 0)"/>
      </g>
     </g>
    </g>
    <g id="xtick_2">
     <g id="line2d_3">
      <path d="M 94.062203 243.058437
L 94.062203 21.198437
" clip-path="url(#p9edc7d8c7c)" style="fill: none; stroke: #e0e0e0; stroke-opacity: 0.3; stroke-width: 0.5; stroke-linecap: square"/>
     </g>
     <g id="line2d_4">
      <g>
       <use xlink:href="#m3ade4a3fe3" x="94.062203" y="243.058437" style="fill: #333333; stroke: #333333; stroke-width: 0.8"/>
      </g>
     </g>
     <g id="text_2">
      <!-- 2000 -->
      <g style="fill: #333333" transform="translate(82.609703 257.397031) scale(0.09 -0.09)">
       <defs>
        <path id="DejaVuSans-32" d="M 1228 531
L 3431 531
L 3431 0
L 469 0
L 469 531
Q 828 903 1448 1529
Q 2069 2156 2228 2338
Q 2531 2678 2651 2914
Q 2772 3150 2772 3378
Q 2772 3750 2511 3984
Q 2250 4219 1831 4219
Q 1534 4219 1204 4116
Q 875 4013 500 3803
L 500 4441
Q 881 4594 1212 4672
Q 1544 4750 1819 4750
Q 2544 4750 2975 4387
Q 3406 4025 3406 3419
Q 3406 3131 3298 2873
Q 3191 2616 2906 2266
Q 2828 2175 2409 1742
Q 1991 1309 1228 531
z
" transform="scale(0.015625)"/>
       </defs>
       <use xlink:href="#DejaVuSans-32"/>
       <use xlink:href="#DejaVuSans-30" transform="translate(63.623047 0)"/>
       <use xlink:href="#DejaVuSans-30" transform="translate(127.246094 0)"/>
       <use xlink:href="#DejaVuSans-30" transform="translate(190.869141 0)"/>
      </g>
     </g>
    </g>
    <g id="xtick_3">
     <g id="line2d_5">
      <path d="M 146.538946 243.058437
L 146.538946 21.198437
" clip-path="url(#p9edc7d8c7c)" style="fill: none; stroke: #e0e0e0; stroke-opacity: 0.3; stroke-width: 0.5; stroke-linecap: square"/>
     </g>
     <g id="line2d_6">
      <g>
       <use xlink:href="#m3ade4a3fe3" x="146.538946" y="243.058437" style="fill: #333333; stroke: #333333; stroke-width: 0.8"/>
      </g>
     </g>
     <g id="text_3">
      <!-- 2010 -->
      <g style="fill: #333333" transform="translate(135.086446 257.397031) scale(0.09 -0.09)">
       <use xlink:href="#DejaVuSans-32"/>
       <use xlink:href="#DejaVuSans-30" transform="translate(63.623047 0)"/>
       <use xlink:href="#DejaVuSans-31" transform="translate(127.246094 0)"/>
       <use xlink:href="#DejaVuSans-30" transform="translate(190.869141 0)"/>
      </g>
     </g>
    </g>
    <g id="xtick_4">
     <g id="line2d_7">
      <path d="M 199.001324 243.058437
L 199.001324 21.198437
" clip-path="url(#p9edc7d8c7c)" style="fill: none; stroke: #e0e0e0; stroke-opacity: 0.3; stroke-width: 0.5; stroke-linecap: square"/>
     </g>
     <g id="line2d_8">
      <g>
       <use xlink:href="#m3ade4a3fe3" x="199.001324" y="243.058437" style="fill: #333333; stroke: #333333; stroke-width: 0.8"/>
      </g>
     </g>
     <g id="text_4">
      <!-- 2020 -->
      <g style="fill: #333333" transform="translate(187.548824 257.397031) scale(0.09 -0.09)">
       <use xlink:href="#DejaVuSans-32"/>
       <use xlink:href="#DejaVuSans-30" transform="translate(63.623047 0)"/>
       <use xlink:href="#DejaVuSans-32" transform="translate(127.246094 0)"/>
       <use xlink:href="#DejaVuSans-30" transform="translate(190.869141 0)"/>
      </g>
     </g>
    </g>
    <g id="xtick_5">
     <g id="line2d_9">
      <defs>
       <path id="m4b0e4ec8c9" d="M 0 0
L 0 2
" style="stroke: #333333; stroke-width: 0.6"/>
      </defs>
      <g>
       <use xlink:href="#m4b0e4ec8c9" x="67.831014" y="243.058437" style="fill: #333333; stroke: #333333; stroke-width: 0.6"/>
      </g>
     </g>
    </g>
    <g id="xtick_6">
     <g id="line2d_10">
      <g>
       <use xlink:href="#m4b0e4ec8c9" x="120.307757" y="243.058437" style="fill: #333333; stroke: #333333; stroke-width: 0.6"/>
      </g>
     </g>
    </g>
    <g id="xtick_7">
     <g id="line2d_11">
      <g>
       <use xlink:href="#m4b0e4ec8c9" x="172.770135" y="243.058437" style="fill: #333333; stroke: #333333; stroke-width: 0.6"/>
      </g>
     </g>
    </g>
    <g id="xtick_8">
     <g id="line2d_12">
      <g>
       <use xlink:href="#m4b0e4ec8c9" x="225.246878" y="243.058437" style="fill: #333333; stroke: #333333; stroke-width: 0.6"/>
      </g>
     </g>
    </g>
    <g id="text_5">
     <!-- Year -->
     <g style="fill: #333333" transform="translate(127.273906 270.107344) scale(0.09 -0.09)">
      <defs>
       <path id="DejaVuSans-Bold-59" d="M -63 4666
L 1253 4666
L 2316 3003
L 3378 4666
L 4697 4666
L 2919 1966
L 2919 0
L 1716 0
L 1716 1966
L -63 4666
z
" transform="scale(0.015625)"/>
       <path id="DejaVuSans-Bold-65" d="M 4031 1759
L 4031 1441
L 1416 1441
Q 1456 1047 1700 850
Q 1944 653 2381 653
Q 2734 653 3104 758
Q 3475 863 3866 1075
L 3866 213
Q 3469 63 3072 -14
Q 2675 -91 2278 -91
Q 1328 -91 801 392
Q 275 875 275 1747
Q 275 2603 792 3093
Q 1309 3584 2216 3584
Q 3041 3584 3536 3087
Q 4031 2591 4031 1759
z
M 2881 2131
Q 2881 2450 2695 2645
Q 2509 2841 2209 2841
Q 1884 2841 1681 2658
Q 1478 2475 1428 2131
L 2881 2131
z
" transform="scale(0.015625)"/>
       <path id="DejaVuSans-Bold-61" d="M 2106 1575
Q 1756 1575 1579 1456
Q 1403 1338 1403 1106
Q 1403 894 1545 773
Q 1688 653 1941 653
Q 2256 653 2472 879
Q 2688 1106 2688 1447
L 2688 1575
L 2106 1575
z
M 3816 1997
L 3816 0
L 2688 0
L 2688 519
Q 2463 200 2181 54
Q 1900 -91 1497 -91
Q 953 -91 614 226
Q 275 544 275 1050
Q 275 1666 698 1953
Q 1122 2241 2028 2241
L 2688 2241
L 2688 2328
Q 2688 2594 2478 2717
Q 2269 2841 1825 2841
Q 1466 2841 1156 2769
Q 847 2697 581 2553
L 581 3406
Q 941 3494 1303 3539
Q 1666 3584 2028 3584
Q 2975 3584 3395 3211
Q 3816 2838 3816 1997
z
" transform="scale(0.015625)"/>
       <path id="DejaVuSans-Bold-72" d="M 3138 2547
Q 2991 2616 2845 2648
Q 2700 2681 2553 2681
Q 2122 2681 1889 2404
Q 1656 2128 1656 1613
L 1656 0
L 538 0
L 538 3500
L 1656 3500
L 1656 2925
Q 1872 3269 2151 3426
Q 2431 3584 2822 3584
Q 2878 3584 2943 3579
Q 3009 3575 3134 3559
L 3138 2547
z
" transform="scale(0.015625)"/>
      </defs>
      <use xlink:href="#DejaVuSans-Bold-59"/>
      <use xlink:href="#DejaVuSans-Bold-65" transform="translate(63.287109 0)"/>
      <use xlink:href="#DejaVuSans-Bold-61" transform="translate(131.109375 0)"/>
      <use xlink:href="#DejaVuSans-Bold-72" transform="translate(198.589844 0)"/>
     </g>
    </g>
   </g>
   <g id="matplotlib.axis_2">
    <g id="ytick_1">
     <g id="line2d_13">
      <path d="M 40.544688 243.058437
L 236.314687 243.058437
" clip-path="url(#p9edc7d8c7c)" style="fill: none; stroke: #e0e0e0; stroke-opacity: 0.3; stroke-width: 0.5; stroke-linecap: square"/>
     </g>
     <g id="line2d_14">
      <defs>
       <path id="m1e18487074" d="M 0 0
L -4 0
" style="stroke: #333333; stroke-width: 0.8"/>
      </defs>
      <g>
       <use xlink:href="#m1e18487074" x="40.544688" y="243.058437" style="fill: #333333; stroke: #333333; stroke-width: 0.8"/>
      </g>
     </g>
     <g id="text_6">
      <!-- 0 -->
      <g style="fill: #333333" transform="translate(27.318438 246.477734) scale(0.09 -0.09)">
       <use xlink:href="#DejaVuSans-30"/>
      </g>
     </g>
    </g>
    <g id="ytick_2">
     <g id="line2d_15">
      <path d="M 40.544688 200.592154
L 236.314687 200.592154
" clip-path="url(#p9edc7d8c7c)" style="fill: none; stroke: #e0e0e0; stroke-opacity: 0.3; stroke-width: 0.5; stroke-linecap: square"/>
     </g>
     <g id="line2d_16">
      <g>
       <use xlink:href="#m1e18487074" x="40.544688" y="200.592154" style="fill: #333333; stroke: #333333; stroke-width: 0.8"/>
      </g>
     </g>
     <g id="text_7">
      <!-- 5k -->
      <g style="fill: #333333" transform="translate(22.106875 204.011451) scale(0.09 -0.09)">
       <defs>
        <path id="DejaVuSans-35" d="M 691 4666
L 3169 4666
L 3169 4134
L 1269 4134
L 1269 2991
Q 1406 3038 1543 3061
Q 1681 3084 1819 3084
Q 2600 3084 3056 2656
Q 3513 2228 3513 1497
Q 3513 744 3044 326
Q 2575 -91 1722 -91
Q 1428 -91 1123 -41
Q 819 9 494 109
L 494 744
Q 775 591 1075 516
Q 1375 441 1709 441
Q 2250 441 2565 725
Q 2881 1009 2881 1497
Q 2881 1984 2565 2268
Q 2250 2553 1709 2553
Q 1456 2553 1204 2497
Q 953 2441 691 2322
L 691 4666
z
" transform="scale(0.015625)"/>
        <path id="DejaVuSans-6b" d="M 581 4863
L 1159 4863
L 1159 1991
L 2875 3500
L 3609 3500
L 1753 1863
L 3688 0
L 2938 0
L 1159 1709
L 1159 0
L 581 0
L 581 4863
z
" transform="scale(0.015625)"/>
       </defs>
       <use xlink:href="#DejaVuSans-35"/>
       <use xlink:href="#DejaVuSans-6b" transform="translate(63.623047 0)"/>
      </g>
     </g>
    </g>
    <g id="ytick_3">
     <g id="line2d_17">
      <path d="M 40.544688 158.125871
L 236.314687 158.125871
" clip-path="url(#p9edc7d8c7c)" style="fill: none; stroke: #e0e0e0; stroke-opacity: 0.3; stroke-width: 0.5; stroke-linecap: square"/>
     </g>
     <g id="line2d_18">
      <g>
       <use xlink:href="#m1e18487074" x="40.544688" y="158.125871" style="fill: #333333; stroke: #333333; stroke-width: 0.8"/>
      </g>
     </g>
     <g id="text_8">
      <!-- 10k -->
      <g style="fill: #333333" transform="translate(16.380625 161.545168) scale(0.09 -0.09)">
       <use xlink:href="#DejaVuSans-31"/>
       <use xlink:href="#DejaVuSans-30" transform="translate(63.623047 0)"/>
       <use xlink:href="#DejaVuSans-6b" transform="translate(127.246094 0)"/>
      </g>
     </g>
    </g>
    <g id="ytick_4">
     <g id="line2d_19">
      <path d="M 40.544688 115.659588
L 236.314687 115.659588
" clip-path="url(#p9edc7d8c7c)" style="fill: none; stroke: #e0e0e0; stroke-opacity: 0.3; stroke-width: 0.5; stroke-linecap: square"/>
     </g>
     <g id="line2d_20">
      <g>
       <use xlink:href="#m1e18487074" x="40.544688" y="115.659588" style="fill: #333333; stroke: #333333; stroke-width: 0.8"/>
      </g>
     </g>
     <g id="text_9">
      <!-- 15k -->
      <g style="fill: #333333" transform="translate(16.380625 119.078885) scale(0.09 -0.09)">
       <use xlink:href="#DejaVuSans-31"/>
       <use xlink:href="#DejaVuSans-35" transform="translate(63.623047 0)"/>
       <use xlink:href="#DejaVuSans-6b" transform="translate(127.246094 0)"/>
      </g>
     </g>
    </g>
    <g id="ytick_5">
     <g id="line2d_21">
      <path d="M 40.544688 73.193305
L 236.314687 73.193305
" clip-path="url(#p9edc7d8c7c)" style="fill: none; stroke: #e0e0e0; stroke-opacity: 0.3; stroke-width: 0.5; stroke-linecap: square"/>
     </g>
     <g id="line2d_22">
      <g>
       <use xlink:href="#m1e18487074" x="40.544688" y="73.193305" style="fill: #333333; stroke: #333333; stroke-width: 0.8"/>
      </g>
     </g>
     <g id="text_10">
      <!-- 20k -->
      <g style="fill: #333333" transform="translate(16.380625 76.612602) scale(0.09 -0.09)">
       <use xlink:href="#DejaVuSans-32"/>
       <use xlink:href="#DejaVuSans-30" transform="translate(63.623047 0)"/>
       <use xlink:href="#DejaVuSans-6b" transform="translate(127.246094 0)"/>
      </g>
     </g>
    </g>
    <g id="ytick_6">
     <g id="line2d_23">
      <path d="M 40.544688 30.727022
L 236.314687 30.727022
" clip-path="url(#p9edc7d8c7c)" style="fill: none; stroke: #e0e0e0; stroke-opacity: 0.3; stroke-width: 0.5; stroke-linecap: square"/>
     </g>
     <g id="line2d_24">
      <g>
       <use xlink:href="#m1e18487074" x="40.544688" y="30.727022" style="fill: #333333; stroke: #333333; stroke-width: 0.8"/>
      </g>
     </g>
     <g id="text_11">
      <!-- 25k -->
      <g style="fill: #333333" transform="translate(16.380625 34.146319) scale(0.09 -0.09)">
       <use xlink:href="#DejaVuSans-32"/>
       <use xlink:href="#DejaVuSans-35" transform="translate(63.623047 0)"/>
       <use xlink:href="#DejaVuSans-6b" transform="translate(127.246094 0)"/>
      </g>
     </g>
    </g>
    <g id="text_12">
     <!-- Monthly Submissions -->
     <g style="fill: #333333" transform="translate(10.438594 186.067969) rotate(-90) scale(0.09 -0.09)">
      <defs>
       <path id="DejaVuSans-Bold-4d" d="M 588 4666
L 2119 4666
L 3181 2169
L 4250 4666
L 5778 4666
L 5778 0
L 4641 0
L 4641 3413
L 3566 897
L 2803 897
L 1728 3413
L 1728 0
L 588 0
L 588 4666
z
" transform="scale(0.015625)"/>
       <path id="DejaVuSans-Bold-6f" d="M 2203 2784
Q 1831 2784 1636 2517
Q 1441 2250 1441 1747
Q 1441 1244 1636 976
Q 1831 709 2203 709
Q 2569 709 2762 976
Q 2956 1244 2956 1747
Q 2956 2250 2762 2517
Q 2569 2784 2203 2784
z
M 2203 3584
Q 3106 3584 3614 3096
Q 4122 2609 4122 1747
Q 4122 884 3614 396
Q 3106 -91 2203 -91
Q 1297 -91 786 396
Q 275 884 275 1747
Q 275 2609 786 3096
Q 1297 3584 2203 3584
z
" transform="scale(0.015625)"/>
       <path id="DejaVuSans-Bold-6e" d="M 4056 2131
L 4056 0
L 2931 0
L 2931 347
L 2931 1631
Q 2931 2084 2911 2256
Q 2891 2428 2841 2509
Q 2775 2619 2662 2680
Q 2550 2741 2406 2741
Q 2056 2741 1856 2470
Q 1656 2200 1656 1722
L 1656 0
L 538 0
L 538 3500
L 1656 3500
L 1656 2988
Q 1909 3294 2193 3439
Q 2478 3584 2822 3584
Q 3428 3584 3742 3212
Q 4056 2841 4056 2131
z
" transform="scale(0.015625)"/>
       <path id="DejaVuSans-Bold-74" d="M 1759 4494
L 1759 3500
L 2913 3500
L 2913 2700
L 1759 2700
L 1759 1216
Q 1759 972 1856 886
Q 1953 800 2241 800
L 2816 800
L 2816 0
L 1856 0
Q 1194 0 917 276
Q 641 553 641 1216
L 641 2700
L 84 2700
L 84 3500
L 641 3500
L 641 4494
L 1759 4494
z
" transform="scale(0.015625)"/>
       <path id="DejaVuSans-Bold-68" d="M 4056 2131
L 4056 0
L 2931 0
L 2931 347
L 2931 1625
Q 2931 2084 2911 2256
Q 2891 2428 2841 2509
Q 2775 2619 2662 2680
Q 2550 2741 2406 2741
Q 2056 2741 1856 2470
Q 1656 2200 1656 1722
L 1656 0
L 538 0
L 538 4863
L 1656 4863
L 1656 2988
Q 1909 3294 2193 3439
Q 2478 3584 2822 3584
Q 3428 3584 3742 3212
Q 4056 2841 4056 2131
z
" transform="scale(0.015625)"/>
       <path id="DejaVuSans-Bold-6c" d="M 538 4863
L 1656 4863
L 1656 0
L 538 0
L 538 4863
z
" transform="scale(0.015625)"/>
       <path id="DejaVuSans-Bold-79" d="M 78 3500
L 1197 3500
L 2138 1125
L 2938 3500
L 4056 3500
L 2584 -331
Q 2363 -916 2067 -1148
Q 1772 -1381 1288 -1381
L 641 -1381
L 641 -647
L 991 -647
Q 1275 -647 1404 -556
Q 1534 -466 1606 -231
L 1638 -134
L 78 3500
z
" transform="scale(0.015625)"/>
       <path id="DejaVuSans-Bold-20" transform="scale(0.015625)"/>
       <path id="DejaVuSans-Bold-53" d="M 3834 4519
L 3834 3531
Q 3450 3703 3084 3790
Q 2719 3878 2394 3878
Q 1963 3878 1756 3759
Q 1550 3641 1550 3391
Q 1550 3203 1689 3098
Q 1828 2994 2194 2919
L 2706 2816
Q 3484 2659 3812 2340
Q 4141 2022 4141 1434
Q 4141 663 3683 286
Q 3225 -91 2284 -91
Q 1841 -91 1394 -6
Q 947 78 500 244
L 500 1259
Q 947 1022 1364 901
Q 1781 781 2169 781
Q 2563 781 2772 912
Q 2981 1044 2981 1288
Q 2981 1506 2839 1625
Q 2697 1744 2272 1838
L 1806 1941
Q 1106 2091 782 2419
Q 459 2747 459 3303
Q 459 4000 909 4375
Q 1359 4750 2203 4750
Q 2588 4750 2994 4692
Q 3400 4634 3834 4519
z
" transform="scale(0.015625)"/>
       <path id="DejaVuSans-Bold-75" d="M 500 1363
L 500 3500
L 1625 3500
L 1625 3150
Q 1625 2866 1622 2436
Q 1619 2006 1619 1863
Q 1619 1441 1641 1255
Q 1663 1069 1716 984
Q 1784 875 1895 815
Q 2006 756 2150 756
Q 2500 756 2700 1025
Q 2900 1294 2900 1772
L 2900 3500
L 4019 3500
L 4019 0
L 2900 0
L 2900 506
Q 2647 200 2364 54
Q 2081 -91 1741 -91
Q 1134 -91 817 281
Q 500 653 500 1363
z
" transform="scale(0.015625)"/>
       <path id="DejaVuSans-Bold-62" d="M 2400 722
Q 2759 722 2948 984
Q 3138 1247 3138 1747
Q 3138 2247 2948 2509
Q 2759 2772 2400 2772
Q 2041 2772 1848 2508
Q 1656 2244 1656 1747
Q 1656 1250 1848 986
Q 2041 722 2400 722
z
M 1656 2988
Q 1888 3294 2169 3439
Q 2450 3584 2816 3584
Q 3463 3584 3878 3070
Q 4294 2556 4294 1747
Q 4294 938 3878 423
Q 3463 -91 2816 -91
Q 2450 -91 2169 54
Q 1888 200 1656 506
L 1656 0
L 538 0
L 538 4863
L 1656 4863
L 1656 2988
z
" transform="scale(0.015625)"/>
       <path id="DejaVuSans-Bold-6d" d="M 3781 2919
Q 3994 3244 4286 3414
Q 4578 3584 4928 3584
Q 5531 3584 5847 3212
Q 6163 2841 6163 2131
L 6163 0
L 5038 0
L 5038 1825
Q 5041 1866 5042 1909
Q 5044 1953 5044 2034
Q 5044 2406 4934 2573
Q 4825 2741 4581 2741
Q 4263 2741 4089 2478
Q 3916 2216 3909 1719
L 3909 0
L 2784 0
L 2784 1825
Q 2784 2406 2684 2573
Q 2584 2741 2328 2741
Q 2006 2741 1831 2477
Q 1656 2213 1656 1722
L 1656 0
L 531 0
L 531 3500
L 1656 3500
L 1656 2988
Q 1863 3284 2130 3434
Q 2397 3584 2719 3584
Q 3081 3584 3359 3409
Q 3638 3234 3781 2919
z
" transform="scale(0.015625)"/>
       <path id="DejaVuSans-Bold-69" d="M 538 3500
L 1656 3500
L 1656 0
L 538 0
L 538 3500
z
M 538 4863
L 1656 4863
L 1656 3950
L 538 3950
L 538 4863
z
" transform="scale(0.015625)"/>
       <path id="DejaVuSans-Bold-73" d="M 3272 3391
L 3272 2541
Q 2913 2691 2578 2766
Q 2244 2841 1947 2841
Q 1628 2841 1473 2761
Q 1319 2681 1319 2516
Q 1319 2381 1436 2309
Q 1553 2238 1856 2203
L 2053 2175
Q 2913 2066 3209 1816
Q 3506 1566 3506 1031
Q 3506 472 3093 190
Q 2681 -91 1863 -91
Q 1516 -91 1145 -36
Q 775 19 384 128
L 384 978
Q 719 816 1070 734
Q 1422 653 1784 653
Q 2113 653 2278 743
Q 2444 834 2444 1013
Q 2444 1163 2330 1236
Q 2216 1309 1875 1350
L 1678 1375
Q 931 1469 631 1722
Q 331 1975 331 2491
Q 331 3047 712 3315
Q 1094 3584 1881 3584
Q 2191 3584 2531 3537
Q 2872 3491 3272 3391
z
" transform="scale(0.015625)"/>
      </defs>
      <use xlink:href="#DejaVuSans-Bold-4d"/>
      <use xlink:href="#DejaVuSans-Bold-6f" transform="translate(99.511719 0)"/>
      <use xlink:href="#DejaVuSans-Bold-6e" transform="translate(168.212891 0)"/>
      <use xlink:href="#DejaVuSans-Bold-74" transform="translate(239.404297 0)"/>
      <use xlink:href="#DejaVuSans-Bold-68" transform="translate(287.207031 0)"/>
      <use xlink:href="#DejaVuSans-Bold-6c" transform="translate(358.398438 0)"/>
      <use xlink:href="#DejaVuSans-Bold-79" transform="translate(392.675781 0)"/>
      <use xlink:href="#DejaVuSans-Bold-20" transform="translate(457.861328 0)"/>
      <use xlink:href="#DejaVuSans-Bold-53" transform="translate(492.675781 0)"/>
      <use xlink:href="#DejaVuSans-Bold-75" transform="translate(564.697266 0)"/>
      <use xlink:href="#DejaVuSans-Bold-62" transform="translate(635.888672 0)"/>
      <use xlink:href="#DejaVuSans-Bold-6d" transform="translate(707.470703 0)"/>
      <use xlink:href="#DejaVuSans-Bold-69" transform="translate(811.669922 0)"/>
      <use xlink:href="#DejaVuSans-Bold-73" transform="translate(845.947266 0)"/>
      <use xlink:href="#DejaVuSans-Bold-73" transform="translate(905.46875 0)"/>
      <use xlink:href="#DejaVuSans-Bold-69" transform="translate(964.990234 0)"/>
      <use xlink:href="#DejaVuSans-Bold-6f" transform="translate(999.267578 0)"/>
      <use xlink:href="#DejaVuSans-Bold-6e" transform="translate(1067.96875 0)"/>
      <use xlink:href="#DejaVuSans-Bold-73" transform="translate(1139.160156 0)"/>
     </g>
    </g>
   </g>
   <g id="FillBetweenPolyCollection_1">
    <defs>
     <path id="m0e7f76905f" d="M 49.443324 -32.520625
L 49.443324 -32.537612
L 49.888651 -32.758436
L 50.333978 -33.013234
L 50.764939 -33.166113
L 51.210266 -33.064193
L 51.641227 -33.183099
L 52.086554 -34.159824
L 52.531881 -33.658721
L 52.948477 -33.539816
L 53.393804 -34.431608
L 53.824766 -34.533527
L 54.270092 -34.533527
L 54.701054 -35.034629
L 55.146381 -34.448594
L 55.591708 -35.374359
L 56.022669 -35.926421
L 56.467996 -36.36807
L 56.898958 -35.951901
L 57.344284 -35.917928
L 57.789611 -36.155739
L 58.191842 -36.801226
L 58.637169 -36.80972
L 59.06813 -37.089997
L 59.513457 -37.073011
L 59.944419 -37.981789
L 60.389746 -37.115477
L 60.835072 -36.920132
L 61.266034 -38.279053
L 61.711361 -38.58481
L 62.142322 -38.788648
L 62.587649 -37.701512
L 63.032976 -38.066722
L 63.435207 -38.916047
L 63.880534 -38.788648
L 64.311495 -39.663454
L 64.756822 -40.062637
L 65.187783 -39.850305
L 65.63311 -39.02646
L 66.078437 -40.028664
L 66.509399 -40.43634
L 66.954725 -41.982113
L 67.385687 -41.481011
L 67.831014 -40.444833
L 68.276341 -40.818537
L 68.678571 -42.440749
L 69.123898 -40.274968
L 69.55486 -41.94814
L 70.000187 -42.670067
L 70.431148 -41.158267
L 70.876475 -41.268679
L 71.321802 -42.143485
L 71.752763 -42.958837
L 72.19809 -42.389789
L 72.629052 -42.26239
L 73.074379 -41.447038
L 73.519705 -41.659369
L 73.936302 -42.449242
L 74.381628 -42.882398
L 74.81259 -44.054467
L 75.257917 -43.655284
L 75.688878 -44.615022
L 76.134205 -44.360225
L 76.579532 -45.039685
L 77.010493 -45.430375
L 77.45582 -44.428171
L 77.886782 -44.980232
L 78.332109 -43.629805
L 78.777436 -44.088441
L 79.179666 -44.50461
L 79.624993 -44.988726
L 80.055955 -45.948464
L 80.501281 -47.035601
L 80.932243 -47.84246
L 81.37757 -44.632009
L 81.822897 -48.504934
L 82.253858 -49.566591
L 82.699185 -47.103547
L 83.130146 -49.073982
L 83.575473 -47.154506
L 84.0208 -46.687377
L 84.423031 -48.751238
L 84.868358 -47.358344
L 85.299319 -48.810691
L 85.744646 -50.263038
L 86.175608 -50.364957
L 86.620935 -48.029312
L 87.066261 -53.023346
L 87.497223 -52.309913
L 87.94255 -51.562506
L 88.373511 -51.231269
L 88.818838 -48.23315
L 89.264165 -48.819184
L 89.666396 -52.853481
L 90.111723 -50.832086
L 90.542684 -51.384148
L 90.988011 -53.133759
L 91.418972 -53.023346
L 91.864299 -50.687701
L 92.309626 -53.770753
L 92.740588 -54.356788
L 93.185914 -53.906645
L 93.616876 -54.543639
L 94.062203 -52.607177
L 94.50753 -52.61567
L 94.924126 -54.603092
L 95.369453 -50.161119
L 95.800414 -55.681736
L 96.245741 -53.235678
L 96.676702 -53.42253
L 97.122029 -54.713505
L 97.567356 -53.940618
L 97.998318 -57.261482
L 98.443645 -56.845312
L 98.874606 -55.061728
L 99.319933 -54.526653
L 99.76526 -53.150745
L 100.16749 -55.56283
L 100.612817 -54.654052
L 101.043779 -57.252988
L 101.489106 -56.904765
L 101.920067 -55.962013
L 102.365394 -53.091293
L 102.810721 -54.161443
L 103.241682 -61.431671
L 103.687009 -60.038776
L 104.117971 -55.605296
L 104.563298 -55.58831
L 105.008624 -54.322815
L 105.410855 -55.163647
L 105.856182 -56.751886
L 106.287144 -58.756295
L 106.73247 -55.409952
L 107.163432 -60.285081
L 107.608759 -55.664749
L 108.054086 -60.667277
L 108.485047 -62.510314
L 108.930374 -61.737428
L 109.361335 -60.174669
L 109.806662 -57.371894
L 110.251989 -56.989697
L 110.65422 -58.153273
L 111.099547 -58.866707
L 111.530508 -60.268094
L 111.975835 -61.932773
L 112.406797 -61.550576
L 112.852123 -55.800641
L 113.29745 -64.344858
L 113.728412 -65.143224
L 114.173739 -60.964541
L 114.6047 -63.614437
L 115.050027 -58.603416
L 115.495354 -60.353027
L 115.91195 -63.121829
L 116.357277 -61.134407
L 116.788238 -62.697166
L 117.233565 -64.030607
L 117.664527 -63.767316
L 118.109854 -60.497412
L 118.55518 -65.975563
L 118.986142 -67.224072
L 119.431469 -67.784626
L 119.86243 -66.442692
L 120.307757 -62.18757
L 120.753084 -60.123709
L 121.155315 -65.482954
L 121.600642 -63.886222
L 122.031603 -64.616642
L 122.47693 -66.357759
L 122.907891 -65.126237
L 123.353218 -64.582669
L 123.798545 -69.423825
L 124.229507 -70.222191
L 124.674833 -68.990669
L 125.105795 -67.198592
L 125.551122 -65.287609
L 125.996449 -62.416888
L 126.398679 -68.302715
L 126.844006 -62.026198
L 127.274968 -68.226276
L 127.720295 -67.674214
L 128.151256 -68.166823
L 128.596583 -67.03722
L 129.04191 -68.829297
L 129.472871 -76.116511
L 129.918198 -73.746893
L 130.34916 -69.007655
L 130.794487 -72.039748
L 131.239813 -67.886546
L 131.642044 -70.680827
L 132.087371 -66.519131
L 132.518332 -72.303039
L 132.963659 -70.604388
L 133.394621 -72.277559
L 133.839948 -70.00986
L 134.285275 -72.286052
L 134.716236 -83.013036
L 135.161563 -75.233213
L 135.592524 -69.941914
L 136.037851 -74.73211
L 136.483178 -70.426029
L 136.899774 -70.901652
L 137.345101 -74.120596
L 137.776063 -73.594014
L 138.221389 -74.817043
L 138.652351 -76.167471
L 139.097678 -67.852573
L 139.543005 -77.424473
L 139.973966 -81.552195
L 140.419293 -73.067432
L 140.850254 -75.972126
L 141.295581 -74.774577
L 141.740908 -74.163062
L 142.143139 -79.632719
L 142.588466 -74.39238
L 143.019427 -74.604712
L 143.464754 -80.201768
L 143.895716 -80.133822
L 144.341043 -71.564126
L 144.786369 -80.898215
L 145.217331 -83.114955
L 145.662658 -81.186985
L 146.093619 -79.547787
L 146.538946 -78.987232
L 146.984273 -75.394584
L 147.386504 -84.609768
L 147.831831 -80.099849
L 148.262792 -81.246438
L 148.708119 -83.165914
L 149.13908 -79.411895
L 149.584407 -78.375717
L 150.029734 -85.4506
L 150.460696 -86.062115
L 150.906022 -89.221606
L 151.336984 -83.862361
L 151.782311 -84.168118
L 152.227638 -81.560689
L 152.629868 -85.909236
L 153.075195 -81.025614
L 153.506157 -86.656643
L 153.951484 -86.512257
L 154.382445 -83.870855
L 154.827772 -86.291433
L 155.273099 -91.438346
L 155.70406 -91.378893
L 156.149387 -94.68277
L 156.580349 -87.149252
L 157.025676 -89.315032
L 157.471002 -89.298045
L 157.887598 -91.149575
L 158.332925 -89.756681
L 158.763887 -92.754801
L 159.209214 -93.001105
L 159.640175 -95.014007
L 160.085502 -88.508173
L 160.530829 -88.830916
L 160.96179 -104.30563
L 161.407117 -95.115926
L 161.838079 -91.752597
L 162.283406 -98.343364
L 162.728732 -94.665784
L 163.130963 -96.016211
L 163.57629 -101.613268
L 164.007252 -96.355942
L 164.452578 -91.497799
L 164.88354 -104.263164
L 165.328867 -90.555047
L 165.774194 -100.424212
L 166.205155 -106.055241
L 166.650482 -97.850755
L 167.081443 -99.430501
L 167.52677 -102.963695
L 167.972097 -95.149899
L 168.374328 -101.774639
L 168.819655 -99.235156
L 169.250616 -100.254347
L 169.695943 -99.396528
L 170.126905 -105.129476
L 170.572231 -92.984119
L 171.017558 -106.208119
L 171.44852 -107.864304
L 171.893847 -100.517637
L 172.324808 -107.006486
L 172.770135 -99.719271
L 173.215462 -100.925314
L 173.617693 -110.582147
L 174.063019 -103.583703
L 174.493981 -101.927518
L 174.939308 -110.802971
L 175.370269 -108.917468
L 175.815596 -100.322293
L 176.260923 -111.66079
L 176.691885 -110.853931
L 177.137211 -112.968752
L 177.568173 -112.153399
L 178.0135 -102.598485
L 178.458827 -110.165977
L 178.875423 -115.295904
L 179.32075 -108.518285
L 179.751711 -115.686594
L 180.197038 -114.429592
L 180.627999 -108.204035
L 181.073326 -109.095827
L 181.518653 -116.340575
L 181.949615 -118.302517
L 182.394942 -120.52775
L 182.825903 -114.047395
L 183.27123 -110.53968
L 183.716557 -108.195541
L 184.118787 -126.014394
L 184.564114 -109.206239
L 184.995076 -127.59414
L 185.440403 -119.975688
L 185.871364 -117.283326
L 186.316691 -116.213176
L 186.762018 -121.844205
L 187.192979 -131.27172
L 187.638306 -130.948976
L 188.069268 -120.272952
L 188.514595 -122.625584
L 188.959921 -122.489692
L 189.362152 -130.702671
L 189.807479 -128.936074
L 190.23844 -139.493192
L 190.683767 -130.770618
L 191.114729 -133.913122
L 191.560056 -124.842324
L 192.005383 -127.398795
L 192.436344 -146.720953
L 192.881671 -142.431859
L 193.312632 -134.210386
L 193.757959 -130.507327
L 194.203286 -128.511411
L 194.605517 -139.994294
L 195.050844 -146.296291
L 195.481805 -149.302903
L 195.927132 -137.412344
L 196.358094 -148.317686
L 196.80342 -133.318595
L 197.248747 -150.41552
L 197.679709 -157.159166
L 198.125036 -145.497925
L 198.555997 -147.323975
L 199.001324 -134.524637
L 199.446651 -142.35542
L 199.863247 -154.950919
L 200.308574 -160.131806
L 200.739535 -157.532869
L 201.184862 -176.905987
L 201.615824 -170.179328
L 202.061151 -149.566194
L 202.506477 -158.450141
L 202.937439 -171.962912
L 203.382766 -161.023598
L 203.813727 -167.257648
L 204.259054 -140.784167
L 204.704381 -148.504537
L 205.106612 -179.224647
L 205.551939 -161.117023
L 205.9829 -161.660592
L 206.428227 -170.519058
L 206.859188 -158.246303
L 207.304515 -151.477177
L 207.749842 -162.654303
L 208.180804 -168.073001
L 208.62613 -165.635436
L 209.057092 -164.981455
L 209.502419 -146.771913
L 209.947746 -151.748961
L 210.349976 -179.250126
L 210.795303 -153.75337
L 211.226265 -168.480677
L 211.671592 -163.979251
L 212.102553 -158.339729
L 212.54788 -159.944954
L 212.993207 -165.355158
L 213.424168 -181.585772
L 213.869495 -179.20766
L 214.300457 -158.959736
L 214.745784 -150.322094
L 215.19111 -158.755898
L 215.593341 -187.514065
L 216.038668 -160.004407
L 216.469629 -203.167137
L 216.914956 -184.108269
L 217.345918 -176.031182
L 217.791245 -176.158581
L 218.236572 -180.753433
L 218.667533 -208.41597
L 219.11286 -192.542073
L 219.543821 -183.258943
L 219.989148 -186.121171
L 220.434475 -197.977757
L 220.851071 -205.205519
L 221.296398 -200.355869
L 221.72736 -211.524501
L 222.172686 -203.22659
L 222.603648 -217.62266
L 223.048975 -180.736446
L 223.494302 -207.21842
L 223.925263 -238.27826
L 224.37059 -201.969588
L 224.801551 -212.628625
L 225.246878 -197.349256
L 225.692205 -213.605349
L 226.094436 -239.679647
L 226.539763 -218.157735
L 226.970724 -243.815863
L 227.416051 -117.436205
L 227.416051 -32.520625
L 227.416051 -32.520625
L 226.970724 -32.520625
L 226.539763 -32.520625
L 226.094436 -32.520625
L 225.692205 -32.520625
L 225.246878 -32.520625
L 224.801551 -32.520625
L 224.37059 -32.520625
L 223.925263 -32.520625
L 223.494302 -32.520625
L 223.048975 -32.520625
L 222.603648 -32.520625
L 222.172686 -32.520625
L 221.72736 -32.520625
L 221.296398 -32.520625
L 220.851071 -32.520625
L 220.434475 -32.520625
L 219.989148 -32.520625
L 219.543821 -32.520625
L 219.11286 -32.520625
L 218.667533 -32.520625
L 218.236572 -32.520625
L 217.791245 -32.520625
L 217.345918 -32.520625
L 216.914956 -32.520625
L 216.469629 -32.520625
L 216.038668 -32.520625
L 215.593341 -32.520625
L 215.19111 -32.520625
L 214.745784 -32.520625
L 214.300457 -32.520625
L 213.869495 -32.520625
L 213.424168 -32.520625
L 212.993207 -32.520625
L 212.54788 -32.520625
L 212.102553 -32.520625
L 211.671592 -32.520625
L 211.226265 -32.520625
L 210.795303 -32.520625
L 210.349976 -32.520625
L 209.947746 -32.520625
L 209.502419 -32.520625
L 209.057092 -32.520625
L 208.62613 -32.520625
L 208.180804 -32.520625
L 207.749842 -32.520625
L 207.304515 -32.520625
L 206.859188 -32.520625
L 206.428227 -32.520625
L 205.9829 -32.520625
L 205.551939 -32.520625
L 205.106612 -32.520625
L 204.704381 -32.520625
L 204.259054 -32.520625
L 203.813727 -32.520625
L 203.382766 -32.520625
L 202.937439 -32.520625
L 202.506477 -32.520625
L 202.061151 -32.520625
L 201.615824 -32.520625
L 201.184862 -32.520625
L 200.739535 -32.520625
L 200.308574 -32.520625
L 199.863247 -32.520625
L 199.446651 -32.520625
L 199.001324 -32.520625
L 198.555997 -32.520625
L 198.125036 -32.520625
L 197.679709 -32.520625
L 197.248747 -32.520625
L 196.80342 -32.520625
L 196.358094 -32.520625
L 195.927132 -32.520625
L 195.481805 -32.520625
L 195.050844 -32.520625
L 194.605517 -32.520625
L 194.203286 -32.520625
L 193.757959 -32.520625
L 193.312632 -32.520625
L 192.881671 -32.520625
L 192.436344 -32.520625
L 192.005383 -32.520625
L 191.560056 -32.520625
L 191.114729 -32.520625
L 190.683767 -32.520625
L 190.23844 -32.520625
L 189.807479 -32.520625
L 189.362152 -32.520625
L 188.959921 -32.520625
L 188.514595 -32.520625
L 188.069268 -32.520625
L 187.638306 -32.520625
L 187.192979 -32.520625
L 186.762018 -32.520625
L 186.316691 -32.520625
L 185.871364 -32.520625
L 185.440403 -32.520625
L 184.995076 -32.520625
L 184.564114 -32.520625
L 184.118787 -32.520625
L 183.716557 -32.520625
L 183.27123 -32.520625
L 182.825903 -32.520625
L 182.394942 -32.520625
L 181.949615 -32.520625
L 181.518653 -32.520625
L 181.073326 -32.520625
L 180.627999 -32.520625
L 180.197038 -32.520625
L 179.751711 -32.520625
L 179.32075 -32.520625
L 178.875423 -32.520625
L 178.458827 -32.520625
L 178.0135 -32.520625
L 177.568173 -32.520625
L 177.137211 -32.520625
L 176.691885 -32.520625
L 176.260923 -32.520625
L 175.815596 -32.520625
L 175.370269 -32.520625
L 174.939308 -32.520625
L 174.493981 -32.520625
L 174.063019 -32.520625
L 173.617693 -32.520625
L 173.215462 -32.520625
L 172.770135 -32.520625
L 172.324808 -32.520625
L 171.893847 -32.520625
L 171.44852 -32.520625
L 171.017558 -32.520625
L 170.572231 -32.520625
L 170.126905 -32.520625
L 169.695943 -32.520625
L 169.250616 -32.520625
L 168.819655 -32.520625
L 168.374328 -32.520625
L 167.972097 -32.520625
L 167.52677 -32.520625
L 167.081443 -32.520625
L 166.650482 -32.520625
L 166.205155 -32.520625
L 165.774194 -32.520625
L 165.328867 -32.520625
L 164.88354 -32.520625
L 164.452578 -32.520625
L 164.007252 -32.520625
L 163.57629 -32.520625
L 163.130963 -32.520625
L 162.728732 -32.520625
L 162.283406 -32.520625
L 161.838079 -32.520625
L 161.407117 -32.520625
L 160.96179 -32.520625
L 160.530829 -32.520625
L 160.085502 -32.520625
L 159.640175 -32.520625
L 159.209214 -32.520625
L 158.763887 -32.520625
L 158.332925 -32.520625
L 157.887598 -32.520625
L 157.471002 -32.520625
L 157.025676 -32.520625
L 156.580349 -32.520625
L 156.149387 -32.520625
L 155.70406 -32.520625
L 155.273099 -32.520625
L 154.827772 -32.520625
L 154.382445 -32.520625
L 153.951484 -32.520625
L 153.506157 -32.520625
L 153.075195 -32.520625
L 152.629868 -32.520625
L 152.227638 -32.520625
L 151.782311 -32.520625
L 151.336984 -32.520625
L 150.906022 -32.520625
L 150.460696 -32.520625
L 150.029734 -32.520625
L 149.584407 -32.520625
L 149.13908 -32.520625
L 148.708119 -32.520625
L 148.262792 -32.520625
L 147.831831 -32.520625
L 147.386504 -32.520625
L 146.984273 -32.520625
L 146.538946 -32.520625
L 146.093619 -32.520625
L 145.662658 -32.520625
L 145.217331 -32.520625
L 144.786369 -32.520625
L 144.341043 -32.520625
L 143.895716 -32.520625
L 143.464754 -32.520625
L 143.019427 -32.520625
L 142.588466 -32.520625
L 142.143139 -32.520625
L 141.740908 -32.520625
L 141.295581 -32.520625
L 140.850254 -32.520625
L 140.419293 -32.520625
L 139.973966 -32.520625
L 139.543005 -32.520625
L 139.097678 -32.520625
L 138.652351 -32.520625
L 138.221389 -32.520625
L 137.776063 -32.520625
L 137.345101 -32.520625
L 136.899774 -32.520625
L 136.483178 -32.520625
L 136.037851 -32.520625
L 135.592524 -32.520625
L 135.161563 -32.520625
L 134.716236 -32.520625
L 134.285275 -32.520625
L 133.839948 -32.520625
L 133.394621 -32.520625
L 132.963659 -32.520625
L 132.518332 -32.520625
L 132.087371 -32.520625
L 131.642044 -32.520625
L 131.239813 -32.520625
L 130.794487 -32.520625
L 130.34916 -32.520625
L 129.918198 -32.520625
L 129.472871 -32.520625
L 129.04191 -32.520625
L 128.596583 -32.520625
L 128.151256 -32.520625
L 127.720295 -32.520625
L 127.274968 -32.520625
L 126.844006 -32.520625
L 126.398679 -32.520625
L 125.996449 -32.520625
L 125.551122 -32.520625
L 125.105795 -32.520625
L 124.674833 -32.520625
L 124.229507 -32.520625
L 123.798545 -32.520625
L 123.353218 -32.520625
L 122.907891 -32.520625
L 122.47693 -32.520625
L 122.031603 -32.520625
L 121.600642 -32.520625
L 121.155315 -32.520625
L 120.753084 -32.520625
L 120.307757 -32.520625
L 119.86243 -32.520625
L 119.431469 -32.520625
L 118.986142 -32.520625
L 118.55518 -32.520625
L 118.109854 -32.520625
L 117.664527 -32.520625
L 117.233565 -32.520625
L 116.788238 -32.520625
L 116.357277 -32.520625
L 115.91195 -32.520625
L 115.495354 -32.520625
L 115.050027 -32.520625
L 114.6047 -32.520625
L 114.173739 -32.520625
L 113.728412 -32.520625
L 113.29745 -32.520625
L 112.852123 -32.520625
L 112.406797 -32.520625
L 111.975835 -32.520625
L 111.530508 -32.520625
L 111.099547 -32.520625
L 110.65422 -32.520625
L 110.251989 -32.520625
L 109.806662 -32.520625
L 109.361335 -32.520625
L 108.930374 -32.520625
L 108.485047 -32.520625
L 108.054086 -32.520625
L 107.608759 -32.520625
L 107.163432 -32.520625
L 106.73247 -32.520625
L 106.287144 -32.520625
L 105.856182 -32.520625
L 105.410855 -32.520625
L 105.008624 -32.520625
L 104.563298 -32.520625
L 104.117971 -32.520625
L 103.687009 -32.520625
L 103.241682 -32.520625
L 102.810721 -32.520625
L 102.365394 -32.520625
L 101.920067 -32.520625
L 101.489106 -32.520625
L 101.043779 -32.520625
L 100.612817 -32.520625
L 100.16749 -32.520625
L 99.76526 -32.520625
L 99.319933 -32.520625
L 98.874606 -32.520625
L 98.443645 -32.520625
L 97.998318 -32.520625
L 97.567356 -32.520625
L 97.122029 -32.520625
L 96.676702 -32.520625
L 96.245741 -32.520625
L 95.800414 -32.520625
L 95.369453 -32.520625
L 94.924126 -32.520625
L 94.50753 -32.520625
L 94.062203 -32.520625
L 93.616876 -32.520625
L 93.185914 -32.520625
L 92.740588 -32.520625
L 92.309626 -32.520625
L 91.864299 -32.520625
L 91.418972 -32.520625
L 90.988011 -32.520625
L 90.542684 -32.520625
L 90.111723 -32.520625
L 89.666396 -32.520625
L 89.264165 -32.520625
L 88.818838 -32.520625
L 88.373511 -32.520625
L 87.94255 -32.520625
L 87.497223 -32.520625
L 87.066261 -32.520625
L 86.620935 -32.520625
L 86.175608 -32.520625
L 85.744646 -32.520625
L 85.299319 -32.520625
L 84.868358 -32.520625
L 84.423031 -32.520625
L 84.0208 -32.520625
L 83.575473 -32.520625
L 83.130146 -32.520625
L 82.699185 -32.520625
L 82.253858 -32.520625
L 81.822897 -32.520625
L 81.37757 -32.520625
L 80.932243 -32.520625
L 80.501281 -32.520625
L 80.055955 -32.520625
L 79.624993 -32.520625
L 79.179666 -32.520625
L 78.777436 -32.520625
L 78.332109 -32.520625
L 77.886782 -32.520625
L 77.45582 -32.520625
L 77.010493 -32.520625
L 76.579532 -32.520625
L 76.134205 -32.520625
L 75.688878 -32.520625
L 75.257917 -32.520625
L 74.81259 -32.520625
L 74.381628 -32.520625
L 73.936302 -32.520625
L 73.519705 -32.520625
L 73.074379 -32.520625
L 72.629052 -32.520625
L 72.19809 -32.520625
L 71.752763 -32.520625
L 71.321802 -32.520625
L 70.876475 -32.520625
L 70.431148 -32.520625
L 70.000187 -32.520625
L 69.55486 -32.520625
L 69.123898 -32.520625
L 68.678571 -32.520625
L 68.276341 -32.520625
L 67.831014 -32.520625
L 67.385687 -32.520625
L 66.954725 -32.520625
L 66.509399 -32.520625
L 66.078437 -32.520625
L 65.63311 -32.520625
L 65.187783 -32.520625
L 64.756822 -32.520625
L 64.311495 -32.520625
L 63.880534 -32.520625
L 63.435207 -32.520625
L 63.032976 -32.520625
L 62.587649 -32.520625
L 62.142322 -32.520625
L 61.711361 -32.520625
L 61.266034 -32.520625
L 60.835072 -32.520625
L 60.389746 -32.520625
L 59.944419 -32.520625
L 59.513457 -32.520625
L 59.06813 -32.520625
L 58.637169 -32.520625
L 58.191842 -32.520625
L 57.789611 -32.520625
L 57.344284 -32.520625
L 56.898958 -32.520625
L 56.467996 -32.520625
L 56.022669 -32.520625
L 55.591708 -32.520625
L 55.146381 -32.520625
L 54.701054 -32.520625
L 54.270092 -32.520625
L 53.824766 -32.520625
L 53.393804 -32.520625
L 52.948477 -32.520625
L 52.531881 -32.520625
L 52.086554 -32.520625
L 51.641227 -32.520625
L 51.210266 -32.520625
L 50.764939 -32.520625
L 50.333978 -32.520625
L 49.888651 -32.520625
L 49.443324 -32.520625
z
" style="stroke: #aec7e8; stroke-opacity: 0.3"/>
    </defs>
    <g clip-path="url(#p9edc7d8c7c)">
     <use xlink:href="#m0e7f76905f" x="0" y="275.579062" style="fill: #aec7e8; fill-opacity: 0.3; stroke: #aec7e8; stroke-opacity: 0.3"/>
    </g>
   </g>
   <g id="patch_3">
    <path d="M 40.544688 243.058437
L 40.544688 21.198437
" style="fill: none; stroke: #333333; stroke-width: 0.8; stroke-linejoin: miter; stroke-linecap: square"/>
   </g>
   <g id="patch_4">
    <path d="M 40.544688 243.058437
L 236.314687 243.058437
" style="fill: none; stroke: #333333; stroke-width: 0.8; stroke-linejoin: miter; stroke-linecap: square"/>
   </g>
   <g id="line2d_25">
    <path d="M 49.443324 243.041451
L 50.764939 242.41295
L 51.210266 242.514869
L 51.641227 242.395963
L 52.086554 241.419239
L 52.531881 241.920341
L 52.948477 242.039247
L 53.393804 241.147455
L 54.270092 241.045536
L 54.701054 240.544434
L 55.146381 241.130468
L 55.591708 240.204703
L 56.467996 239.210992
L 56.898958 239.627162
L 57.344284 239.661135
L 57.789611 239.423324
L 58.191842 238.777836
L 58.637169 238.769343
L 59.06813 238.489065
L 59.513457 238.506052
L 59.944419 237.597273
L 60.389746 238.463586
L 60.835072 238.658931
L 61.266034 237.30001
L 62.142322 236.790414
L 62.587649 237.877551
L 63.032976 237.512341
L 63.435207 236.663015
L 63.880534 236.790414
L 64.311495 235.915609
L 64.756822 235.516426
L 65.187783 235.728757
L 65.63311 236.552603
L 66.078437 235.550399
L 66.509399 235.142722
L 66.954725 233.59695
L 67.385687 234.098052
L 67.831014 235.134229
L 68.276341 234.760526
L 68.678571 233.138314
L 69.123898 235.304094
L 69.55486 233.630923
L 70.000187 232.908996
L 70.431148 234.420796
L 70.876475 234.310383
L 71.752763 232.620225
L 72.19809 233.189273
L 72.629052 233.316672
L 73.074379 234.132025
L 73.519705 233.919693
L 73.936302 233.129821
L 74.381628 232.696664
L 74.81259 231.524595
L 75.257917 231.923778
L 75.688878 230.96404
L 76.134205 231.218838
L 76.579532 230.539377
L 77.010493 230.148687
L 77.45582 231.150892
L 77.886782 230.59883
L 78.332109 231.949258
L 79.624993 230.590337
L 80.932243 227.736603
L 81.37757 230.947054
L 81.822897 227.074129
L 82.253858 226.012471
L 82.699185 228.475516
L 83.130146 226.50508
L 83.575473 228.424556
L 84.0208 228.891685
L 84.423031 226.827824
L 84.868358 228.220718
L 85.744646 225.316024
L 86.175608 225.214105
L 86.620935 227.549751
L 87.066261 222.555716
L 87.94255 224.016556
L 88.373511 224.347793
L 88.818838 227.345913
L 89.264165 226.759878
L 89.666396 222.725581
L 90.111723 224.746976
L 90.542684 224.194915
L 90.988011 222.445304
L 91.418972 222.555716
L 91.864299 224.891362
L 92.309626 221.808309
L 92.740588 221.222275
L 93.185914 221.672417
L 93.616876 221.035423
L 94.062203 222.971886
L 94.50753 222.963392
L 94.924126 220.97597
L 95.369453 225.417944
L 95.800414 219.897327
L 96.245741 222.343385
L 96.676702 222.156533
L 97.122029 220.865558
L 97.567356 221.638444
L 97.998318 218.317581
L 98.443645 218.733751
L 98.874606 220.517334
L 99.319933 221.05241
L 99.76526 222.428317
L 100.16749 220.016232
L 100.612817 220.925011
L 101.043779 218.326074
L 101.489106 218.674298
L 101.920067 219.617049
L 102.365394 222.48777
L 102.810721 221.41762
L 103.241682 214.147392
L 103.687009 215.540286
L 104.117971 219.973766
L 104.563298 219.990753
L 105.008624 221.256248
L 105.410855 220.415415
L 105.856182 218.827176
L 106.287144 216.822768
L 106.73247 220.169111
L 107.163432 215.293982
L 107.608759 219.914313
L 108.054086 214.911785
L 108.485047 213.068748
L 108.930374 213.841635
L 109.361335 215.404394
L 109.806662 218.207169
L 110.251989 218.589365
L 110.65422 217.425789
L 111.099547 216.712355
L 111.975835 213.64629
L 112.406797 214.028486
L 112.852123 219.778421
L 113.29745 211.234205
L 113.728412 210.435839
L 114.173739 214.614521
L 114.6047 211.964625
L 115.050027 216.975646
L 115.495354 215.226036
L 115.91195 212.457234
L 116.357277 214.444656
L 117.233565 211.548455
L 117.664527 211.811746
L 118.109854 215.08165
L 118.55518 209.6035
L 118.986142 208.354991
L 119.431469 207.794436
L 119.86243 209.136371
L 120.307757 213.391492
L 120.753084 215.455353
L 121.155315 210.096109
L 121.600642 211.692841
L 122.031603 210.962421
L 122.47693 209.221303
L 122.907891 210.452825
L 123.353218 210.996394
L 123.798545 206.155238
L 124.229507 205.356871
L 124.674833 206.588394
L 125.551122 210.291453
L 125.996449 213.162174
L 126.398679 207.276347
L 126.844006 213.552864
L 127.274968 207.352787
L 127.720295 207.904848
L 128.151256 207.412239
L 128.596583 208.541843
L 129.04191 206.749765
L 129.472871 199.462551
L 129.918198 201.83217
L 130.34916 206.571407
L 130.794487 203.539314
L 131.239813 207.692517
L 131.642044 204.898236
L 132.087371 209.059931
L 132.518332 203.276024
L 132.963659 204.974675
L 133.394621 203.301503
L 133.839948 205.569203
L 134.285275 203.29301
L 134.716236 192.566027
L 135.161563 200.34585
L 135.592524 205.637149
L 136.037851 200.846952
L 136.483178 205.153033
L 136.899774 204.677411
L 137.345101 201.458467
L 137.776063 201.985049
L 138.652351 199.411592
L 139.097678 207.72649
L 139.543005 198.15459
L 139.973966 194.026867
L 140.419293 202.51163
L 140.850254 199.606937
L 141.295581 200.804486
L 141.740908 201.416
L 142.143139 195.946343
L 142.588466 201.186682
L 143.019427 200.974351
L 143.464754 195.377295
L 143.895716 195.445241
L 144.341043 204.014937
L 144.786369 194.680848
L 145.217331 192.464108
L 146.093619 196.031276
L 146.538946 196.591831
L 146.984273 200.184478
L 147.386504 190.969295
L 147.831831 195.479214
L 148.262792 194.332624
L 148.708119 192.413148
L 149.13908 196.167168
L 149.584407 197.203345
L 150.029734 190.128462
L 150.460696 189.516948
L 150.906022 186.357456
L 151.336984 191.716701
L 151.782311 191.410944
L 152.227638 194.018374
L 152.629868 189.669826
L 153.075195 194.553449
L 153.506157 188.92242
L 153.951484 189.066805
L 154.382445 191.708208
L 154.827772 189.28763
L 155.273099 184.140716
L 155.70406 184.200169
L 156.149387 180.896292
L 156.580349 188.429811
L 157.025676 186.264031
L 157.471002 186.281017
L 157.887598 184.429487
L 158.332925 185.822381
L 158.763887 182.824262
L 159.209214 182.577957
L 159.640175 180.565055
L 160.085502 187.07089
L 160.530829 186.748146
L 160.96179 171.273433
L 161.407117 180.463136
L 161.838079 183.826466
L 162.283406 177.235699
L 162.728732 180.913279
L 163.130963 179.562851
L 163.57629 173.965795
L 164.452578 184.081264
L 164.88354 171.315899
L 165.328867 185.024015
L 165.774194 175.154851
L 166.205155 169.523822
L 166.650482 177.728308
L 167.081443 176.148562
L 167.52677 172.615367
L 167.972097 180.429163
L 168.374328 173.804423
L 168.819655 176.343907
L 169.250616 175.324716
L 169.695943 176.182535
L 170.126905 170.449587
L 170.572231 182.594944
L 171.017558 169.370943
L 171.44852 167.714758
L 171.893847 175.061425
L 172.324808 168.572577
L 172.770135 175.859791
L 173.215462 174.653749
L 173.617693 164.996916
L 174.063019 171.995359
L 174.493981 173.651544
L 174.939308 164.776091
L 175.370269 166.661594
L 175.815596 175.25677
L 176.260923 163.918272
L 176.691885 164.725132
L 177.137211 162.610311
L 177.568173 163.425663
L 178.0135 172.980577
L 178.458827 165.413086
L 178.875423 160.283159
L 179.32075 167.060777
L 179.751711 159.892469
L 180.197038 161.149471
L 180.627999 167.375028
L 181.073326 166.483236
L 181.518653 159.238488
L 182.394942 155.051312
L 182.825903 161.531667
L 183.27123 165.039382
L 183.716557 167.383521
L 184.118787 149.564669
L 184.564114 166.372824
L 184.995076 147.984923
L 185.440403 155.603374
L 185.871364 158.295736
L 186.316691 159.365887
L 186.762018 153.734858
L 187.192979 144.307343
L 187.638306 144.630087
L 188.069268 155.30611
L 188.514595 152.953478
L 188.959921 153.08937
L 189.362152 144.876391
L 189.807479 146.642988
L 190.23844 136.08587
L 190.683767 144.808445
L 191.114729 141.66594
L 191.560056 150.736738
L 192.005383 148.180268
L 192.436344 128.858109
L 192.881671 133.147204
L 193.312632 141.368676
L 193.757959 145.071736
L 194.203286 147.067651
L 194.605517 135.584768
L 195.050844 129.282772
L 195.481805 126.276159
L 195.927132 138.166718
L 196.358094 127.261377
L 196.80342 142.260468
L 197.248747 125.163542
L 197.679709 118.419897
L 198.125036 130.081138
L 198.555997 128.255088
L 199.001324 141.054426
L 199.446651 133.223643
L 199.863247 120.628143
L 200.308574 115.447257
L 200.739535 118.046193
L 201.184862 98.673075
L 201.615824 105.399734
L 202.061151 126.012868
L 202.506477 117.128922
L 202.937439 103.61615
L 203.382766 114.555465
L 203.813727 108.321415
L 204.259054 134.794895
L 204.704381 127.074525
L 205.106612 96.354416
L 205.551939 114.462039
L 205.9829 113.918471
L 206.428227 105.060004
L 206.859188 117.33276
L 207.304515 124.101885
L 207.749842 112.92476
L 208.180804 107.506062
L 208.62613 109.943627
L 209.057092 110.597607
L 209.502419 128.80715
L 209.947746 123.830101
L 210.349976 96.328936
L 210.795303 121.825693
L 211.226265 107.098386
L 211.671592 111.599812
L 212.102553 117.239334
L 212.54788 115.634108
L 212.993207 110.223904
L 213.424168 93.993291
L 213.869495 96.371402
L 214.300457 116.619326
L 214.745784 125.256968
L 215.19111 116.823164
L 215.593341 88.064998
L 216.038668 115.574656
L 216.469629 72.411926
L 216.914956 91.470793
L 217.345918 99.54788
L 217.791245 99.420482
L 218.236572 94.82563
L 218.667533 67.163093
L 219.11286 83.03699
L 219.543821 92.320119
L 219.989148 89.457892
L 220.434475 77.601305
L 220.851071 70.373544
L 221.296398 75.223194
L 221.72736 64.054561
L 222.172686 72.352473
L 222.603648 57.956403
L 223.048975 94.842616
L 223.925263 37.300803
L 224.37059 73.609475
L 224.801551 62.950438
L 225.246878 78.229806
L 225.692205 61.973713
L 226.094436 35.899415
L 226.539763 57.421328
L 226.970724 31.763199
L 227.416051 158.142858
L 227.416051 158.142858
" clip-path="url(#p9edc7d8c7c)" style="fill: none; stroke: #1f77b4; stroke-opacity: 0.9; stroke-width: 1.5; stroke-linecap: square"/>
   </g>
   <g id="text_13">
    <g id="patch_5">
     <path d="M 198.238194 49.004594
L 232.399288 49.004594
Q 234.499288 49.004594 234.499288 46.904594
L 234.499288 32.291437
Q 234.499288 30.191437 232.399288 30.191437
L 198.238194 30.191437
Q 196.138194 30.191437 196.138194 32.291437
L 196.138194 46.904594
Q 196.138194 49.004594 198.238194 49.004594
z
" style="fill: #ffffff; opacity: 0.9; stroke: #000000; stroke-linejoin: miter"/>
    </g>
    <!-- Peak: 24k -->
    <g style="fill: #333333" transform="translate(198.238194 37.610344) scale(0.07 -0.07)">
     <defs>
      <path id="DejaVuSans-50" d="M 1259 4147
L 1259 2394
L 2053 2394
Q 2494 2394 2734 2622
Q 2975 2850 2975 3272
Q 2975 3691 2734 3919
Q 2494 4147 2053 4147
L 1259 4147
z
M 628 4666
L 2053 4666
Q 2838 4666 3239 4311
Q 3641 3956 3641 3272
Q 3641 2581 3239 2228
Q 2838 1875 2053 1875
L 1259 1875
L 1259 0
L 628 0
L 628 4666
z
" transform="scale(0.015625)"/>
      <path id="DejaVuSans-65" d="M 3597 1894
L 3597 1613
L 953 1613
Q 991 1019 1311 708
Q 1631 397 2203 397
Q 2534 397 2845 478
Q 3156 559 3463 722
L 3463 178
Q 3153 47 2828 -22
Q 2503 -91 2169 -91
Q 1331 -91 842 396
Q 353 884 353 1716
Q 353 2575 817 3079
Q 1281 3584 2069 3584
Q 2775 3584 3186 3129
Q 3597 2675 3597 1894
z
M 3022 2063
Q 3016 2534 2758 2815
Q 2500 3097 2075 3097
Q 1594 3097 1305 2825
Q 1016 2553 972 2059
L 3022 2063
z
" transform="scale(0.015625)"/>
      <path id="DejaVuSans-61" d="M 2194 1759
Q 1497 1759 1228 1600
Q 959 1441 959 1056
Q 959 750 1161 570
Q 1363 391 1709 391
Q 2188 391 2477 730
Q 2766 1069 2766 1631
L 2766 1759
L 2194 1759
z
M 3341 1997
L 3341 0
L 2766 0
L 2766 531
Q 2569 213 2275 61
Q 1981 -91 1556 -91
Q 1019 -91 701 211
Q 384 513 384 1019
Q 384 1609 779 1909
Q 1175 2209 1959 2209
L 2766 2209
L 2766 2266
Q 2766 2663 2505 2880
Q 2244 3097 1772 3097
Q 1472 3097 1187 3025
Q 903 2953 641 2809
L 641 3341
Q 956 3463 1253 3523
Q 1550 3584 1831 3584
Q 2591 3584 2966 3190
Q 3341 2797 3341 1997
z
" transform="scale(0.015625)"/>
      <path id="DejaVuSans-3a" d="M 750 794
L 1409 794
L 1409 0
L 750 0
L 750 794
z
M 750 3309
L 1409 3309
L 1409 2516
L 750 2516
L 750 3309
z
" transform="scale(0.015625)"/>
      <path id="DejaVuSans-20" transform="scale(0.015625)"/>
      <path id="DejaVuSans-34" d="M 2419 4116
L 825 1625
L 2419 1625
L 2419 4116
z
M 2253 4666
L 3047 4666
L 3047 1625
L 3713 1625
L 3713 1100
L 3047 1100
L 3047 0
L 2419 0
L 2419 1100
L 313 1100
L 313 1709
L 2253 4666
z
" transform="scale(0.015625)"/>
     </defs>
     <use xlink:href="#DejaVuSans-50"/>
     <use xlink:href="#DejaVuSans-65" transform="translate(56.677734 0)"/>
     <use xlink:href="#DejaVuSans-61" transform="translate(118.201172 0)"/>
     <use xlink:href="#DejaVuSans-6b" transform="translate(179.480469 0)"/>
     <use xlink:href="#DejaVuSans-3a" transform="translate(237.390625 0)"/>
     <use xlink:href="#DejaVuSans-20" transform="translate(271.082031 0)"/>
     <use xlink:href="#DejaVuSans-32" transform="translate(302.869141 0)"/>
     <use xlink:href="#DejaVuSans-34" transform="translate(366.492188 0)"/>
     <use xlink:href="#DejaVuSans-6b" transform="translate(430.115234 0)"/>
    </g>
    <!-- (2025) -->
    <g style="fill: #333333" transform="translate(209.1221 45.448812) scale(0.07 -0.07)">
     <defs>
      <path id="DejaVuSans-28" d="M 1984 4856
Q 1566 4138 1362 3434
Q 1159 2731 1159 2009
Q 1159 1288 1364 580
Q 1569 -128 1984 -844
L 1484 -844
Q 1016 -109 783 600
Q 550 1309 550 2009
Q 550 2706 781 3412
Q 1013 4119 1484 4856
L 1984 4856
z
" transform="scale(0.015625)"/>
      <path id="DejaVuSans-29" d="M 513 4856
L 1013 4856
Q 1481 4119 1714 3412
Q 1947 2706 1947 2009
Q 1947 1309 1714 600
Q 1481 -109 1013 -844
L 513 -844
Q 928 -128 1133 580
Q 1338 1288 1338 2009
Q 1338 2731 1133 3434
Q 928 4138 513 4856
z
" transform="scale(0.015625)"/>
     </defs>
     <use xlink:href="#DejaVuSans-28"/>
     <use xlink:href="#DejaVuSans-32" transform="translate(39.013672 0)"/>
     <use xlink:href="#DejaVuSans-30" transform="translate(102.636719 0)"/>
     <use xlink:href="#DejaVuSans-32" transform="translate(166.259766 0)"/>
     <use xlink:href="#DejaVuSans-35" transform="translate(229.882812 0)"/>
     <use xlink:href="#DejaVuSans-29" transform="translate(293.505859 0)"/>
    </g>
   </g>
   <g id="text_14">
    <!-- arXiv Preprint Growth (1991-2025) -->
    <g style="fill: #333333" transform="translate(40.260156 11.198437) scale(0.1 -0.1)">
     <defs>
      <path id="DejaVuSans-Bold-58" d="M 3188 2381
L 4806 0
L 3553 0
L 2463 1594
L 1381 0
L 122 0
L 1741 2381
L 184 4666
L 1441 4666
L 2463 3163
L 3481 4666
L 4744 4666
L 3188 2381
z
" transform="scale(0.015625)"/>
      <path id="DejaVuSans-Bold-76" d="M 97 3500
L 1216 3500
L 2088 1081
L 2956 3500
L 4078 3500
L 2700 0
L 1472 0
L 97 3500
z
" transform="scale(0.015625)"/>
      <path id="DejaVuSans-Bold-50" d="M 588 4666
L 2584 4666
Q 3475 4666 3951 4270
Q 4428 3875 4428 3144
Q 4428 2409 3951 2014
Q 3475 1619 2584 1619
L 1791 1619
L 1791 0
L 588 0
L 588 4666
z
M 1791 3794
L 1791 2491
L 2456 2491
Q 2806 2491 2997 2661
Q 3188 2831 3188 3144
Q 3188 3456 2997 3625
Q 2806 3794 2456 3794
L 1791 3794
z
" transform="scale(0.015625)"/>
      <path id="DejaVuSans-Bold-70" d="M 1656 506
L 1656 -1331
L 538 -1331
L 538 3500
L 1656 3500
L 1656 2988
Q 1888 3294 2169 3439
Q 2450 3584 2816 3584
Q 3463 3584 3878 3070
Q 4294 2556 4294 1747
Q 4294 938 3878 423
Q 3463 -91 2816 -91
Q 2450 -91 2169 54
Q 1888 200 1656 506
z
M 2400 2772
Q 2041 2772 1848 2508
Q 1656 2244 1656 1747
Q 1656 1250 1848 986
Q 2041 722 2400 722
Q 2759 722 2948 984
Q 3138 1247 3138 1747
Q 3138 2247 2948 2509
Q 2759 2772 2400 2772
z
" transform="scale(0.015625)"/>
      <path id="DejaVuSans-Bold-47" d="M 4781 347
Q 4331 128 3847 18
Q 3363 -91 2847 -91
Q 1681 -91 1000 561
Q 319 1213 319 2328
Q 319 3456 1012 4103
Q 1706 4750 2913 4750
Q 3378 4750 3804 4662
Q 4231 4575 4609 4403
L 4609 3438
Q 4219 3659 3833 3768
Q 3447 3878 3059 3878
Q 2341 3878 1952 3476
Q 1563 3075 1563 2328
Q 1563 1588 1938 1184
Q 2313 781 3003 781
Q 3191 781 3352 804
Q 3513 828 3641 878
L 3641 1784
L 2906 1784
L 2906 2591
L 4781 2591
L 4781 347
z
" transform="scale(0.015625)"/>
      <path id="DejaVuSans-Bold-77" d="M 225 3500
L 1313 3500
L 1900 1088
L 2491 3500
L 3425 3500
L 4013 1113
L 4603 3500
L 5691 3500
L 4769 0
L 3547 0
L 2956 2406
L 2369 0
L 1147 0
L 225 3500
z
" transform="scale(0.015625)"/>
      <path id="DejaVuSans-Bold-28" d="M 2413 -844
L 1484 -844
Q 1006 -72 778 623
Q 550 1319 550 2003
Q 550 2688 779 3389
Q 1009 4091 1484 4856
L 2413 4856
Q 2013 4116 1813 3408
Q 1613 2700 1613 2009
Q 1613 1319 1811 609
Q 2009 -100 2413 -844
z
" transform="scale(0.015625)"/>
      <path id="DejaVuSans-Bold-31" d="M 750 831
L 1813 831
L 1813 3847
L 722 3622
L 722 4441
L 1806 4666
L 2950 4666
L 2950 831
L 4013 831
L 4013 0
L 750 0
L 750 831
z
" transform="scale(0.015625)"/>
      <path id="DejaVuSans-Bold-39" d="M 641 103
L 641 966
Q 928 831 1190 764
Q 1453 697 1709 697
Q 2247 697 2547 995
Q 2847 1294 2900 1881
Q 2688 1725 2447 1647
Q 2206 1569 1925 1569
Q 1209 1569 770 1986
Q 331 2403 331 3084
Q 331 3838 820 4291
Q 1309 4744 2131 4744
Q 3044 4744 3544 4128
Q 4044 3513 4044 2388
Q 4044 1231 3459 570
Q 2875 -91 1856 -91
Q 1528 -91 1228 -42
Q 928 6 641 103
z
M 2125 2350
Q 2441 2350 2600 2554
Q 2759 2759 2759 3169
Q 2759 3575 2600 3781
Q 2441 3988 2125 3988
Q 1809 3988 1650 3781
Q 1491 3575 1491 3169
Q 1491 2759 1650 2554
Q 1809 2350 2125 2350
z
" transform="scale(0.015625)"/>
      <path id="DejaVuSans-Bold-2d" d="M 347 2297
L 2309 2297
L 2309 1388
L 347 1388
L 347 2297
z
" transform="scale(0.015625)"/>
      <path id="DejaVuSans-Bold-32" d="M 1844 884
L 3897 884
L 3897 0
L 506 0
L 506 884
L 2209 2388
Q 2438 2594 2547 2791
Q 2656 2988 2656 3200
Q 2656 3528 2436 3728
Q 2216 3928 1850 3928
Q 1569 3928 1234 3808
Q 900 3688 519 3450
L 519 4475
Q 925 4609 1322 4679
Q 1719 4750 2100 4750
Q 2938 4750 3402 4381
Q 3866 4013 3866 3353
Q 3866 2972 3669 2642
Q 3472 2313 2841 1759
L 1844 884
z
" transform="scale(0.015625)"/>
      <path id="DejaVuSans-Bold-30" d="M 2944 2338
Q 2944 3213 2780 3570
Q 2616 3928 2228 3928
Q 1841 3928 1675 3570
Q 1509 3213 1509 2338
Q 1509 1453 1675 1090
Q 1841 728 2228 728
Q 2613 728 2778 1090
Q 2944 1453 2944 2338
z
M 4147 2328
Q 4147 1169 3647 539
Q 3147 -91 2228 -91
Q 1306 -91 806 539
Q 306 1169 306 2328
Q 306 3491 806 4120
Q 1306 4750 2228 4750
Q 3147 4750 3647 4120
Q 4147 3491 4147 2328
z
" transform="scale(0.015625)"/>
      <path id="DejaVuSans-Bold-35" d="M 678 4666
L 3669 4666
L 3669 3781
L 1638 3781
L 1638 3059
Q 1775 3097 1914 3117
Q 2053 3138 2203 3138
Q 3056 3138 3531 2711
Q 4006 2284 4006 1522
Q 4006 766 3489 337
Q 2972 -91 2053 -91
Q 1656 -91 1267 -14
Q 878 63 494 219
L 494 1166
Q 875 947 1217 837
Q 1559 728 1863 728
Q 2300 728 2551 942
Q 2803 1156 2803 1522
Q 2803 1891 2551 2103
Q 2300 2316 1863 2316
Q 1603 2316 1309 2248
Q 1016 2181 678 2041
L 678 4666
z
" transform="scale(0.015625)"/>
      <path id="DejaVuSans-Bold-29" d="M 513 -844
Q 913 -100 1113 609
Q 1313 1319 1313 2009
Q 1313 2700 1113 3408
Q 913 4116 513 4856
L 1441 4856
Q 1916 4091 2145 3389
Q 2375 2688 2375 2003
Q 2375 1319 2147 623
Q 1919 -72 1441 -844
L 513 -844
z
" transform="scale(0.015625)"/>
     </defs>
     <use xlink:href="#DejaVuSans-Bold-61"/>
     <use xlink:href="#DejaVuSans-Bold-72" transform="translate(67.480469 0)"/>
     <use xlink:href="#DejaVuSans-Bold-58" transform="translate(116.796875 0)"/>
     <use xlink:href="#DejaVuSans-Bold-69" transform="translate(193.896484 0)"/>
     <use xlink:href="#DejaVuSans-Bold-76" transform="translate(228.173828 0)"/>
     <use xlink:href="#DejaVuSans-Bold-20" transform="translate(293.359375 0)"/>
     <use xlink:href="#DejaVuSans-Bold-50" transform="translate(328.173828 0)"/>
     <use xlink:href="#DejaVuSans-Bold-72" transform="translate(401.464844 0)"/>
     <use xlink:href="#DejaVuSans-Bold-65" transform="translate(450.78125 0)"/>
     <use xlink:href="#DejaVuSans-Bold-70" transform="translate(518.603516 0)"/>
     <use xlink:href="#DejaVuSans-Bold-72" transform="translate(590.185547 0)"/>
     <use xlink:href="#DejaVuSans-Bold-69" transform="translate(639.501953 0)"/>
     <use xlink:href="#DejaVuSans-Bold-6e" transform="translate(673.779297 0)"/>
     <use xlink:href="#DejaVuSans-Bold-74" transform="translate(744.970703 0)"/>
     <use xlink:href="#DejaVuSans-Bold-20" transform="translate(792.773438 0)"/>
     <use xlink:href="#DejaVuSans-Bold-47" transform="translate(827.587891 0)"/>
     <use xlink:href="#DejaVuSans-Bold-72" transform="translate(909.667969 0)"/>
     <use xlink:href="#DejaVuSans-Bold-6f" transform="translate(958.984375 0)"/>
     <use xlink:href="#DejaVuSans-Bold-77" transform="translate(1027.685547 0)"/>
     <use xlink:href="#DejaVuSans-Bold-74" transform="translate(1120.068359 0)"/>
     <use xlink:href="#DejaVuSans-Bold-68" transform="translate(1167.871094 0)"/>
     <use xlink:href="#DejaVuSans-Bold-20" transform="translate(1239.0625 0)"/>
     <use xlink:href="#DejaVuSans-Bold-28" transform="translate(1273.876953 0)"/>
     <use xlink:href="#DejaVuSans-Bold-31" transform="translate(1319.580078 0)"/>
     <use xlink:href="#DejaVuSans-Bold-39" transform="translate(1389.160156 0)"/>
     <use xlink:href="#DejaVuSans-Bold-39" transform="translate(1458.740234 0)"/>
     <use xlink:href="#DejaVuSans-Bold-31" transform="translate(1528.320312 0)"/>
     <use xlink:href="#DejaVuSans-Bold-2d" transform="translate(1597.900391 0)"/>
     <use xlink:href="#DejaVuSans-Bold-32" transform="translate(1639.404297 0)"/>
     <use xlink:href="#DejaVuSans-Bold-30" transform="translate(1708.984375 0)"/>
     <use xlink:href="#DejaVuSans-Bold-32" transform="translate(1778.564453 0)"/>
     <use xlink:href="#DejaVuSans-Bold-35" transform="translate(1848.144531 0)"/>
     <use xlink:href="#DejaVuSans-Bold-29" transform="translate(1917.724609 0)"/>
    </g>
   </g>
  </g>
 </g>
 <defs>
  <clipPath id="p9edc7d8c7c">
   <rect x="40.544688" y="21.198437" width="195.77" height="221.86"/>
  </clipPath>
 </defs>
</svg>
